<?xml version="1.0" encoding="utf-8"?>
<!-- Generator: Adobe Illustrator 15.0.0, SVG Export Plug-In . SVG Version: 6.00 Build 0)  -->
<!DOCTYPE svg PUBLIC "-//W3C//DTD SVG 1.1//EN" "http://www.w3.org/Graphics/SVG/1.1/DTD/svg11.dtd">
<svg version="1.1" id="contents" xmlns="http://www.w3.org/2000/svg" xmlns:xlink="http://www.w3.org/1999/xlink" x="0px" y="0px"
	 width="18.886px" height="30px" viewBox="0 0 18.886 30" enable-background="new 0 0 18.886 30" xml:space="preserve">
<path fill="#C30D23" d="M9.393,0.346c-4.994,0-9.059,4.064-9.059,9.059c0,1.43,0.339,2.854,0.985,4.116
	c0.434,0.847,1.002,1.624,1.689,2.311c0.748,0.744,1.344,1.623,1.761,2.589c0.993,2.308,1.554,4.228,2.049,5.917
	c0.511,1.754,0.954,3.268,1.746,4.866c0.002,0.004,0.004,0.008,0.006,0.011c0.113,0.229,0.425,0.388,0.823,0.439
	c0.399-0.052,0.71-0.211,0.823-0.439c0.002-0.003,0.004-0.007,0.006-0.011c0.791-1.599,1.234-3.112,1.746-4.866
	c0.494-1.689,1.056-3.609,2.051-5.917c0.413-0.967,1.011-1.846,1.757-2.589c0.689-0.687,1.259-1.463,1.69-2.311
	c0.646-1.263,0.985-2.686,0.985-4.116C18.451,4.411,14.387,0.346,9.393,0.346z M9.393,12.329c-1.613,0-2.922-1.309-2.922-2.924
	c0-1.613,1.309-2.921,2.922-2.921c1.612,0,2.922,1.308,2.922,2.921C12.314,11.02,11.005,12.329,9.393,12.329z"/>
</svg>
